<svg width="490" height="490" viewBox="0 0 490 490" fill="none" xmlns="http://www.w3.org/2000/svg">
<g clip-path="url(#clip0_223_894)">
<g clip-path="url(#clip1_223_894)">
<rect width="490" height="490" fill="#D1EDD7"/>
<path fill-rule="evenodd" clip-rule="evenodd" d="M185.113 272.98V267.693C182.145 271.516 177.334 273.469 171.238 273.469C162.013 273.469 156.238 267.693 156.238 259.965C156.238 251.911 162.092 246.949 172.521 246.868H185.034V245.729C185.034 240.685 181.745 237.675 175.328 237.675C171.318 237.675 166.988 239.057 162.575 241.741L158.806 234.42C164.982 230.922 169.795 229.052 177.655 229.052C188.883 229.052 195.22 234.826 195.299 244.506L195.381 272.979L185.113 272.98ZM185.034 257.848V254.95H174.206C168.672 254.95 166.103 256.073 166.103 259.312C166.103 262.973 168.992 265.332 173.723 265.332C179.739 265.332 184.472 262.079 185.034 257.848ZM227.301 229.051V239.301C218.238 238.732 212.704 244.1 212.704 251.991V272.979H202.279V229.457H212.704V237.837C215.59 232.143 220.643 229.131 227.301 229.051ZM250.881 229.131C238.047 229.131 229.065 238.08 229.065 251.341C229.065 264.439 237.805 273.386 251.121 273.386C258.66 273.386 264.918 270.619 269.168 265.901L263.553 259.964C260.506 263.135 256.416 264.844 252.005 264.844C245.748 264.844 241.097 261.102 239.734 254.919H271.412C272.457 239.138 265.958 229.131 250.881 229.131ZM250.961 237.348C257.12 237.348 261.254 241.009 261.872 246.863H239.675C240.914 241.008 245.107 237.348 250.961 237.348ZM298.361 229.131C285.527 229.131 276.545 238.08 276.545 251.341C276.545 264.439 285.287 273.386 298.601 273.386C306.141 273.386 312.397 270.619 316.648 265.901L311.033 259.964C307.986 263.135 303.895 264.844 299.484 264.844C293.228 264.844 288.578 261.102 287.213 254.919H318.893C319.937 239.138 313.439 229.131 298.361 229.131ZM298.442 237.348C304.6 237.348 308.733 241.009 309.352 246.863H287.156C288.394 241.008 292.587 237.348 298.442 237.348ZM388.781 246.052V273.222H378.274V249.142C378.274 242.961 375.087 239.217 371.058 239.217C365.05 239.217 362.02 244.67 362.02 251.745V273.221H351.513V249.142C351.513 242.961 347.98 239.217 343.758 239.217C336.878 239.217 335.175 244.67 335.175 251.745V273.221H324.75V229.7H335.175L335.208 236.696C337.954 232.109 342.034 229.364 347.473 229.294C354.192 229.294 358.785 233.844 360.1 238C364.219 231.398 368.339 229.294 374.843 229.294C383.494 229.294 388.781 235.721 388.781 246.052ZM129.973 273.756C114.117 273.756 101.219 260.672 101.219 244.589H112.162C112.162 254.553 120.153 262.656 129.973 262.656C133.113 262.656 136.198 261.819 138.894 260.233C140.685 259.179 142.282 257.817 143.614 256.209L151.988 263.355C149.833 265.952 147.276 268.133 144.385 269.832C140.005 272.404 135.034 273.757 129.973 273.756Z" fill="#18AA33"/>
<path fill-rule="evenodd" clip-rule="evenodd" d="M143.609 232.965C141.175 230.034 137.831 227.928 134.191 227.031L136.769 216.244C142.659 217.693 148.059 221.093 151.981 225.817L143.609 232.965ZM123.813 226.631C123.813 231.217 120.15 234.932 115.629 234.932C114.555 234.932 113.491 234.717 112.498 234.3C111.505 233.883 110.603 233.271 109.843 232.501C109.084 231.73 108.481 230.815 108.07 229.808C107.659 228.801 107.447 227.721 107.447 226.631C107.447 222.047 111.112 218.33 115.629 218.33C120.147 218.33 123.813 222.046 123.813 226.631Z" fill="#18AA33"/>
</g>
</g>
<defs>
<clipPath id="clip0_223_894">
<rect width="490" height="490" fill="white"/>
</clipPath>
<clipPath id="clip1_223_894">
<rect width="490" height="490" fill="white"/>
</clipPath>
</defs>
</svg>
