<svg width="490" height="490" viewBox="0 0 490 490" fill="none" xmlns="http://www.w3.org/2000/svg">
<g clip-path="url(#clip0_206_568)">
<rect width="490" height="490" fill="white"/>
<g clip-path="url(#clip1_206_568)">
<rect width="490" height="490" fill="url(#paint0_radial_206_568)"/>
<circle cx="245" cy="245" r="100" fill="white"/>
<path d="M239.393 187.137C239.268 171.041 235.486 170.014 227.817 173.343C227.338 173.551 226.896 173 227.233 172.602C239.898 157.653 254.38 169.198 255.358 178.969C255.396 179.354 255.184 179.713 254.841 179.892L240.128 187.593C239.795 187.768 239.396 187.513 239.393 187.137Z" fill="#037CB0"/>
<path d="M254.47 299.155L240.936 306.454C240.269 306.813 239.461 306.331 239.461 305.574V194.125L254.046 186.259C254.713 185.9 255.521 186.382 255.521 187.139V297.395C255.521 298.13 255.118 298.806 254.47 299.155Z" fill="#037CB0"/>
<path d="M275.866 322.91V243.945V238.171C280.615 234.061 285.433 229.157 290.253 223.38C290.858 222.655 292.053 223.072 292.053 224.016V314.164C292.053 314.88 291.671 315.54 291.051 315.897L277.365 323.777C276.699 324.161 275.866 323.679 275.866 322.91Z" fill="#037CB0"/>
<path d="M234.582 189.302V190.008C234.582 190.339 234.405 190.657 234.132 190.845C178.527 229.207 220.541 282.369 272.67 240.827C273.692 240.013 273.772 246.323 272.67 247.487C218.825 304.352 157.87 229.635 233.075 188.453C233.736 188.091 234.582 188.549 234.582 189.302Z" fill="#037CB0"/>
</g>
</g>
<defs>
<radialGradient id="paint0_radial_206_568" cx="0" cy="0" r="1" gradientUnits="userSpaceOnUse" gradientTransform="translate(245 245) rotate(45) scale(346.482)">
<stop stop-color="#037CB0" stop-opacity="0.5"/>
<stop offset="1" stop-color="#037CB0"/>
</radialGradient>
<clipPath id="clip0_206_568">
<rect width="490" height="490" fill="white"/>
</clipPath>
<clipPath id="clip1_206_568">
<rect width="490" height="490" fill="white"/>
</clipPath>
</defs>
</svg>
