<svg width="519" height="518" viewBox="0 0 519 518" fill="none" xmlns="http://www.w3.org/2000/svg">
<g filter="url(#filter0_d_390_565)">
<circle cx="218.053" cy="164.031" r="54.0309" fill="#FFD000" stroke="#FFD000" stroke-width="5"/>
<path d="M263.607 164.031C263.607 189.189 243.212 209.584 218.053 209.584C192.895 209.584 172.5 189.189 172.5 164.031C172.5 138.872 192.895 118.478 218.053 118.478C243.212 118.478 263.607 138.872 263.607 164.031Z" fill="#FFD000" stroke="#333333" stroke-width="7"/>
<path d="M220.05 171.211H215.13C215.143 169.734 215.246 168.469 215.438 167.414C215.644 166.359 215.981 165.41 216.447 164.566C216.914 163.707 217.545 162.83 218.341 161.938C218.972 161.24 219.535 160.583 220.029 159.967C220.537 159.334 220.935 158.677 221.223 157.995C221.511 157.297 221.655 156.511 221.655 155.634C221.655 154.645 221.518 153.817 221.244 153.152C220.983 152.487 220.592 151.984 220.07 151.643C219.562 151.286 218.924 151.107 218.156 151.107C217.524 151.107 216.927 151.262 216.365 151.57C215.802 151.878 215.349 152.357 215.006 153.006C214.663 153.639 214.478 154.466 214.45 155.488H208.995C209.036 153.363 209.462 151.594 210.271 150.183C211.081 148.755 212.172 147.692 213.545 146.994C214.917 146.28 216.454 145.923 218.156 145.923C220.036 145.923 221.642 146.297 222.973 147.043C224.318 147.773 225.34 148.844 226.04 150.256C226.754 151.667 227.111 153.371 227.111 155.367C227.111 156.794 226.877 158.076 226.411 159.212C225.944 160.332 225.326 161.378 224.558 162.352C223.789 163.325 222.959 164.307 222.067 165.297C221.285 166.124 220.756 167.008 220.482 167.95C220.207 168.891 220.063 169.978 220.05 171.211ZM214.615 178.78C214.615 177.807 214.889 176.995 215.438 176.346C216.001 175.697 216.756 175.373 217.703 175.373C218.65 175.373 219.398 175.697 219.947 176.346C220.509 176.995 220.791 177.807 220.791 178.78C220.791 179.721 220.509 180.516 219.947 181.165C219.398 181.814 218.65 182.139 217.703 182.139C216.756 182.139 216.001 181.814 215.438 181.165C214.889 180.516 214.615 179.721 214.615 178.78Z" fill="#333333"/>
<path d="M212.137 237.291H223.969C276.108 237.291 318.376 279.558 318.376 331.697C318.376 334.68 315.958 337.098 312.975 337.098H123.131C120.148 337.098 117.73 334.68 117.73 331.697C117.73 279.558 159.998 237.291 212.137 237.291Z" fill="#FFD000" stroke="#FFD000" stroke-width="7"/>
<path d="M210.077 246.186H226.548C272.26 246.186 309.436 282.733 310.45 328.202H126.175C127.189 282.733 164.365 246.186 210.077 246.186Z" fill="#FFD000" stroke="#333333" stroke-width="7"/>
<circle cx="306.016" cy="311.268" r="61.3667" stroke="#333333" stroke-width="26"/>
<path fill-rule="evenodd" clip-rule="evenodd" d="M351.642 264.329C375.582 288.27 377.216 326.069 356.543 351.901L375.801 371.159C377.953 371.296 380.066 372.186 381.71 373.831L399.079 391.2C402.666 394.787 402.666 400.603 399.079 404.191L398.46 404.81C394.873 408.397 389.056 408.397 385.469 404.81L368.1 387.441C366.456 385.796 365.565 383.683 365.428 381.531L346.17 362.273C320.339 382.946 282.539 381.313 258.599 357.373C232.906 331.68 232.906 290.023 258.599 264.329C284.292 238.636 325.949 238.636 351.642 264.329ZM345.147 350.877C367.253 328.771 367.253 292.931 345.147 270.825C323.041 248.719 287.2 248.719 265.095 270.825C242.989 292.931 242.989 328.771 265.095 350.877C287.2 372.983 323.041 372.983 345.147 350.877ZM391.111 399.167L373.742 381.799L376.068 379.473L393.437 396.842L391.111 399.167Z" fill="#FFD000"/>
</g>
<defs>
<filter id="filter0_d_390_565" x="0.5" y="0" width="518" height="518" filterUnits="userSpaceOnUse" color-interpolation-filters="sRGB">
<feFlood flood-opacity="0" result="BackgroundImageFix"/>
<feColorMatrix in="SourceAlpha" type="matrix" values="0 0 0 0 0 0 0 0 0 0 0 0 0 0 0 0 0 0 127 0" result="hardAlpha"/>
<feMorphology radius="1" operator="dilate" in="SourceAlpha" result="effect1_dropShadow_390_565"/>
<feOffset dx="1" dy="1"/>
<feGaussianBlur stdDeviation="4"/>
<feComposite in2="hardAlpha" operator="out"/>
<feColorMatrix type="matrix" values="0 0 0 0 0 0 0 0 0 0 0 0 0 0 0 0 0 0 0.1 0"/>
<feBlend mode="normal" in2="BackgroundImageFix" result="effect1_dropShadow_390_565"/>
<feBlend mode="normal" in="SourceGraphic" in2="effect1_dropShadow_390_565" result="shape"/>
</filter>
</defs>
</svg>
