<svg width="518" height="518" viewBox="0 0 518 518" fill="none" xmlns="http://www.w3.org/2000/svg">
<g filter="url(#filter0_d_371_1369)">
<path d="M440.747 260.441L334.858 296.142C345.726 306.876 349.875 313.896 353.607 328.295C365.558 328.799 371.854 340.924 367.974 351.13L465.229 332.405C488.843 317.591 467.107 255.642 440.747 260.441Z" fill="#FFD000"/>
<path d="M338.657 334.717C333.306 342.979 334.024 351.13 340.195 357.57L190.785 402.683C205.173 391.633 197.33 338.357 166.498 331.222L312.126 302.429C326.417 309.115 332.087 316.408 338.657 334.717Z" fill="#FFD000"/>
<path d="M155.854 336.904C148.509 339.614 143.329 351.023 142.648 368.213L160.408 363.414C161.875 359.599 165.183 356.78 167.467 356.672C186.737 355.762 188.528 389.278 178.737 389.81C166.101 390.495 164.294 369.341 170.413 367.512C174.258 366.363 178.892 369.629 179.307 378.154C179.307 380.073 175.975 380.483 175.975 377.61C175.975 373.58 173.905 370.435 171.907 371.527C168.287 373.505 170.413 387.298 178.054 385.696C185.695 384.094 179.82 357.358 167.467 361.243C156.268 365.792 163.42 405.42 183.291 402.036C194.476 399.618 197.22 373.892 188.528 357.358C178.668 338.6 169.195 331.981 155.854 336.904Z" fill="#FFD000"/>
<path d="M351.418 407.65L351.993 362.397C353.905 362.44 354.982 362.408 356.939 361.705L360.964 405.226L356.018 401.763L351.418 407.65Z" fill="#FFD000"/>
<path d="M366.544 385.118L358.367 361.243C359.367 360.928 359.928 360.612 360.964 359.808L372.67 381.09L367.974 379.712L366.544 385.118Z" fill="#FFD000"/>
<ellipse cx="351.89" cy="345.096" rx="13.4368" ry="13.4867" fill="#FFD000"/>
<path d="M239.362 107.65L464.756 153.913C466.698 154.312 466.939 156.991 465.098 157.729L274.726 234.083L46.2644 169.368C44.3397 168.822 44.3191 166.102 46.2353 165.528L239.362 107.65Z" fill="#FFD000"/>
<path d="M348.868 265.619V212.775L274.934 242.928L140.821 204.878V265.619C161.273 309.394 337.926 300.496 348.868 265.619Z" fill="#FFD000"/>
<path fill-rule="evenodd" clip-rule="evenodd" d="M103.337 183.165H98.7582V212.73C95.6011 213.711 93.3076 216.665 93.3076 220.156C93.3076 223.163 95.0092 225.771 97.4988 227.064C97.4677 227.985 97.4453 228.873 97.4239 229.717C97.3377 233.13 97.2699 235.811 96.7288 236.953C95.8654 237.646 95.1791 238.594 94.7956 239.806L83.3919 302.759C82.3987 310.602 120.906 309.456 118.631 302.759L107.414 239.806C107.03 238.543 106.261 237.548 105.281 236.836C104.793 235.736 104.762 233.489 104.726 230.892C104.71 229.662 104.692 228.355 104.624 227.053C107.102 225.757 108.794 223.155 108.794 220.156C108.794 216.662 106.498 213.707 103.337 212.728V183.165Z" fill="#FFD000"/>
</g>
<defs>
<filter id="filter0_d_371_1369" x="0" y="0" width="518" height="518" filterUnits="userSpaceOnUse" color-interpolation-filters="sRGB">
<feFlood flood-opacity="0" result="BackgroundImageFix"/>
<feColorMatrix in="SourceAlpha" type="matrix" values="0 0 0 0 0 0 0 0 0 0 0 0 0 0 0 0 0 0 127 0" result="hardAlpha"/>
<feMorphology radius="1" operator="dilate" in="SourceAlpha" result="effect1_dropShadow_371_1369"/>
<feOffset dx="1" dy="1"/>
<feGaussianBlur stdDeviation="4"/>
<feComposite in2="hardAlpha" operator="out"/>
<feColorMatrix type="matrix" values="0 0 0 0 0 0 0 0 0 0 0 0 0 0 0 0 0 0 0.1 0"/>
<feBlend mode="normal" in2="BackgroundImageFix" result="effect1_dropShadow_371_1369"/>
<feBlend mode="normal" in="SourceGraphic" in2="effect1_dropShadow_371_1369" result="shape"/>
</filter>
</defs>
</svg>
