<svg width="518" height="518" viewBox="0 0 518 518" fill="none" xmlns="http://www.w3.org/2000/svg">
<g filter="url(#filter0_d_390_499)">
<path d="M293.097 183.416C293.097 218.688 264.533 247.284 229.297 247.284C194.067 247.284 165.503 218.688 165.503 183.416C165.503 148.139 194.067 119.542 229.297 119.542C264.533 119.542 293.097 148.139 293.097 183.416Z" fill="#DAB200"/>
<path d="M273.595 229.412C273.443 229.412 273.286 229.354 273.167 229.235C272.929 228.997 272.929 228.611 273.167 228.372C285.101 216.424 291.673 200.538 291.673 183.637C291.673 166.74 285.101 150.854 273.167 138.906C261.233 126.958 245.365 120.378 228.488 120.378C211.606 120.378 195.743 126.958 183.804 138.906C183.566 139.144 183.18 139.144 182.942 138.906C182.704 138.667 182.704 138.281 182.942 138.043C195.11 125.866 211.282 119.158 228.488 119.158C245.689 119.158 261.866 125.866 274.029 138.043C286.191 150.22 292.892 166.416 292.892 183.637C292.892 200.862 286.191 217.054 274.029 229.235C273.91 229.354 273.753 229.412 273.595 229.412Z" fill="#BE9B00"/>
<path d="M277.847 183.416C277.847 210.259 256.113 232.018 229.297 232.018C202.486 232.018 180.751 210.259 180.751 183.416C180.751 156.569 202.486 134.809 229.297 134.809C256.113 134.809 277.847 156.569 277.847 183.416Z" fill="#333333"/>
<path d="M229.297 232.629C202.195 232.629 180.142 210.55 180.142 183.417C180.142 156.279 202.195 134.199 229.297 134.199C229.635 134.199 229.907 134.476 229.907 134.809C229.907 135.148 229.635 135.42 229.297 135.42C202.867 135.42 181.361 156.951 181.361 183.417C181.361 209.878 202.867 231.409 229.297 231.409C229.635 231.409 229.907 231.68 229.907 232.019C229.907 232.357 229.635 232.629 229.297 232.629Z" fill="#BE9B00"/>
<path d="M241.873 192.705H228.668C225.958 192.705 223.753 190.497 223.753 187.785V169.453C223.753 167.093 225.667 165.181 228.02 165.181C230.377 165.181 232.287 167.093 232.287 169.453V184.161H241.873C244.23 184.161 246.14 186.073 246.14 188.433C246.14 190.793 244.23 192.705 241.873 192.705Z" fill="#FFD000"/>
<path d="M130.252 205.601L198.975 274.405C212.419 287.864 234.211 287.864 247.655 274.405L255.874 266.18C258.974 263.072 258.974 258.037 255.874 254.928L227.83 226.856C224.729 223.747 219.696 223.747 216.595 226.856L202.571 240.892C201.475 241.994 199.699 241.994 198.599 240.892L164.592 206.846C163.511 205.763 163.511 204.004 164.592 202.922L178.422 189.076C181.522 185.973 181.522 180.938 178.422 177.829L149.615 148.994C146.553 145.928 141.6 145.881 138.481 148.894L130.681 156.441C116.832 169.824 116.642 191.975 130.252 205.601Z" fill="#FFD000"/>
<path d="M132.401 157.829L171.017 196.49L178.423 189.076C181.523 185.973 181.523 180.938 178.423 177.829L149.621 148.994C146.554 145.928 141.601 145.881 138.482 148.894L130.682 156.441L132.401 157.829Z" fill="white"/>
<path d="M131.6 156.398L132.833 157.395L171.017 195.622L177.988 188.647C179.374 187.26 180.136 185.415 180.136 183.455C180.136 181.491 179.374 179.65 177.988 178.263L149.187 149.423C146.377 146.61 141.762 146.572 138.905 149.337L131.6 156.398ZM171.017 197.353L131.995 158.281L129.757 156.484L138.057 148.455C141.391 145.237 146.772 145.28 150.049 148.56L178.85 177.4C182.184 180.737 182.184 186.168 178.85 189.51L171.017 197.353Z" fill="#BE9B00"/>
<path d="M210.957 235.146L249.574 273.808L256.974 266.398C260.079 263.295 260.079 258.255 256.974 255.151L228.173 226.316C225.111 223.246 220.158 223.203 217.039 226.216L209.233 233.763L210.957 235.146Z" fill="white"/>
<path d="M210.157 233.721L211.391 234.717L249.574 272.945L256.546 265.965C257.932 264.582 258.694 262.737 258.694 260.773C258.694 258.813 257.932 256.968 256.546 255.581L227.744 226.746C224.935 223.933 220.32 223.894 217.463 226.655L210.157 233.721ZM249.574 274.671L210.553 235.604L208.314 233.807L216.615 225.778C219.949 222.555 225.33 222.602 228.606 225.883L257.408 254.718C259.022 256.339 259.913 258.489 259.913 260.773C259.913 263.061 259.022 265.212 257.408 266.828L249.574 274.671Z" fill="#BE9B00"/>
<path d="M135.361 153.264L158.891 176.821Z" fill="#EDF2F9"/>
<path d="M158.893 177.433C158.736 177.433 158.579 177.376 158.46 177.256L134.93 153.699C134.691 153.461 134.691 153.074 134.93 152.836C135.168 152.598 135.553 152.598 135.792 152.836L159.322 176.393C159.56 176.632 159.56 177.018 159.322 177.256C159.202 177.376 159.045 177.433 158.893 177.433Z" fill="#BE9B00"/>
<path d="M228.954 246.969L252.484 270.527Z" fill="#EDF2F9"/>
<path d="M252.484 271.139C252.331 271.139 252.174 271.082 252.055 270.958L228.525 247.405C228.287 247.167 228.287 246.78 228.525 246.542C228.763 246.304 229.149 246.304 229.387 246.542L252.917 270.095C253.155 270.333 253.155 270.724 252.917 270.958C252.798 271.082 252.641 271.139 252.484 271.139Z" fill="#BE9B00"/>
<path d="M355.738 391.556L265.647 378.216C255.46 376.709 248.422 367.217 249.931 357.018L282.243 138.317C283.748 128.119 293.229 121.073 303.416 122.584L393.507 135.924C403.693 137.431 410.727 146.923 409.222 157.121L376.911 375.822C375.406 386.02 365.924 393.062 355.738 391.556Z" fill="#FFD000"/>
<path d="M370.619 366.092L258.765 349.525L289.276 143L401.131 159.564L370.619 366.092Z" fill="#333333"/>
<path d="M398.841 175.064L286.991 158.5L289.277 143L401.132 159.568L398.841 175.064Z" fill="#9A7E00"/>
<path d="M312.783 364.543C311.487 364.543 310.235 364.958 309.173 365.74C307.868 366.712 307.02 368.128 306.782 369.74C306.544 371.347 306.949 372.953 307.916 374.26C308.882 375.566 310.302 376.415 311.911 376.653C315.23 377.149 318.326 374.841 318.816 371.523C319.05 369.912 318.65 368.31 317.683 367.003C316.712 365.697 315.297 364.848 313.688 364.61C313.388 364.567 313.083 364.543 312.783 364.543ZM312.802 377.94C312.449 377.94 312.092 377.912 311.73 377.859C309.802 377.578 308.101 376.558 306.935 374.989C305.773 373.421 305.292 371.494 305.577 369.559C305.863 367.628 306.882 365.926 308.449 364.762C310.016 363.599 311.94 363.113 313.868 363.404C315.797 363.69 317.497 364.71 318.659 366.274C319.821 367.842 320.307 369.769 320.021 371.699C319.483 375.328 316.359 377.94 312.802 377.94Z" fill="#EDF2F9"/>
<path d="M328.959 137.552C328.721 137.552 328.488 137.628 328.293 137.771C328.05 137.952 327.893 138.214 327.85 138.515C327.802 138.815 327.878 139.111 328.059 139.354C328.236 139.592 328.502 139.754 328.798 139.797C329.098 139.84 329.393 139.764 329.636 139.587C329.879 139.406 330.036 139.144 330.079 138.844C330.121 138.548 330.05 138.248 329.869 138.004C329.688 137.761 329.426 137.604 329.131 137.561L328.959 137.552ZM328.964 141.027C328.85 141.027 328.736 141.022 328.621 141.003C328.002 140.913 327.455 140.584 327.078 140.078C326.707 139.578 326.55 138.958 326.64 138.333C326.735 137.714 327.059 137.165 327.564 136.793C328.069 136.417 328.683 136.259 329.307 136.355C329.926 136.445 330.474 136.774 330.85 137.28C331.221 137.785 331.379 138.4 331.283 139.025C331.112 140.188 330.107 141.027 328.964 141.027Z" fill="#EDF2F9"/>
<path d="M336.756 138.704C336.208 138.704 335.722 139.105 335.641 139.667C335.598 139.968 335.67 140.263 335.851 140.506C336.032 140.749 336.294 140.907 336.594 140.95L365.129 145.174C365.743 145.269 366.319 144.84 366.41 144.22C366.453 143.925 366.376 143.629 366.2 143.386C366.019 143.143 365.757 142.985 365.457 142.938L336.922 138.714L336.756 138.704ZM365.3 146.409C365.181 146.409 365.067 146.399 364.948 146.385L336.413 142.156C335.794 142.065 335.246 141.736 334.874 141.236C334.498 140.73 334.341 140.111 334.436 139.486C334.527 138.866 334.855 138.318 335.355 137.946C335.86 137.569 336.484 137.417 337.098 137.507L365.638 141.732C366.257 141.822 366.805 142.151 367.176 142.657C367.553 143.162 367.705 143.782 367.615 144.402C367.524 145.021 367.196 145.57 366.691 145.946C366.281 146.247 365.8 146.409 365.3 146.409Z" fill="#EDF2F9"/>
<path d="M371.082 302.901L293.053 291.344C291.786 291.158 290.601 292.04 290.415 293.308L287.419 313.576C287.234 314.849 288.11 316.031 289.381 316.217L356.09 326.096L362.962 335.588L364.186 327.297L367.405 327.774C368.677 327.96 369.858 327.083 370.048 325.81L373.039 305.542C373.229 304.274 372.353 303.087 371.082 302.901Z" fill="#E3B900"/>
<path d="M356.09 326.706L356 326.701L289.291 316.823C288.515 316.708 287.834 316.298 287.362 315.669C286.896 315.035 286.705 314.262 286.819 313.485L289.81 293.217C290.048 291.615 291.539 290.49 293.144 290.743L311.173 293.413C311.507 293.465 311.74 293.775 311.688 294.109C311.64 294.438 311.326 294.672 310.997 294.619L292.967 291.949C292.029 291.821 291.158 292.459 291.02 293.399L288.024 313.662C287.958 314.119 288.072 314.572 288.343 314.939C288.615 315.306 289.015 315.545 289.467 315.612L356.176 325.495C356.509 325.543 356.743 325.853 356.69 326.186C356.648 326.487 356.386 326.706 356.09 326.706Z" fill="#BE9B00"/>
<path d="M383.488 218.926L305.464 207.374C304.193 207.183 303.012 208.061 302.821 209.334L299.826 229.601C299.64 230.874 300.516 232.057 301.788 232.243L368.497 242.121L375.368 251.614L376.592 243.323L379.816 243.8C381.083 243.986 382.269 243.108 382.455 241.835L385.45 221.568C385.636 220.3 384.759 219.117 383.488 218.926Z" fill="#E3B900"/>
<path d="M375.753 253.183L368.153 242.689L301.696 232.849C300.096 232.61 298.986 231.113 299.225 229.511C299.272 229.177 299.582 228.958 299.915 228.996C300.248 229.049 300.477 229.359 300.429 229.692C300.363 230.145 300.477 230.598 300.748 230.965C301.02 231.332 301.42 231.576 301.877 231.642L368.838 241.554L374.982 250.041L376.077 242.627L379.901 243.195C380.353 243.261 380.806 243.152 381.177 242.875C381.544 242.603 381.782 242.203 381.849 241.75L383.844 228.267C383.892 227.933 384.201 227.704 384.535 227.752C384.868 227.8 385.097 228.109 385.049 228.443L383.058 241.926C382.939 242.704 382.53 243.385 381.901 243.857C381.272 244.325 380.496 244.515 379.725 244.401L377.106 244.015L375.753 253.183Z" fill="#BE9B00"/>
<path d="M284.724 245.039L362.753 256.591C364.019 256.782 364.896 257.964 364.71 259.237L361.715 279.5C361.529 280.773 360.348 281.655 359.076 281.464L292.367 271.585L283.043 278.675L284.272 270.389L281.048 269.912C279.781 269.721 278.9 268.539 279.09 267.266L282.086 246.998C282.272 245.73 283.453 244.848 284.724 245.039Z" fill="#9A7E00"/>
<path d="M359.424 282.1C359.276 282.1 359.133 282.09 358.985 282.071L317.345 275.902C317.011 275.854 316.783 275.544 316.83 275.21C316.878 274.877 317.188 274.643 317.521 274.695L359.166 280.86C359.619 280.927 360.071 280.817 360.438 280.541C360.805 280.269 361.048 279.868 361.114 279.416L364.105 259.148C364.243 258.213 363.595 257.336 362.662 257.198C362.329 257.15 362.1 256.84 362.148 256.502C362.195 256.173 362.505 255.944 362.838 255.992C364.438 256.23 365.548 257.722 365.314 259.329L362.319 279.592C362.205 280.369 361.795 281.056 361.167 281.523C360.652 281.904 360.047 282.1 359.424 282.1Z" fill="#BE9B00"/>
<path d="M370.619 366.093L258.765 349.525L261.574 330.525L373.424 347.089L370.619 366.093Z" fill="#333333"/>
<path d="M278.081 342.506C277.533 346.23 274.071 348.8 270.356 348.251C266.637 347.698 264.07 344.237 264.623 340.513C265.17 336.794 268.632 334.225 272.347 334.773C276.061 335.326 278.633 338.787 278.081 342.506Z" fill="#C19E00"/>
<path d="M360.571 360.967C360.28 360.967 359.98 360.948 359.68 360.9L287.195 350.168C285.59 349.93 284.176 349.081 283.209 347.78C282.247 346.478 281.842 344.876 282.08 343.269C282.523 340.261 285.119 338.082 288.066 338.082C288.366 338.082 288.666 338.106 288.967 338.154L361.457 348.886C364.766 349.377 367.062 352.466 366.571 355.78C366.124 358.798 363.528 360.967 360.571 360.967ZM288.086 339.307C285.719 339.307 283.642 341.038 283.285 343.451C283.099 344.733 283.419 346.011 284.19 347.055C284.961 348.094 286.09 348.771 287.371 348.957L359.861 359.694C360.095 359.728 360.333 359.747 360.566 359.747C362.928 359.747 365.009 358.011 365.366 355.603C365.552 354.321 365.233 353.043 364.462 352.004C363.69 350.96 362.562 350.283 361.281 350.092L288.79 339.36C288.552 339.326 288.314 339.307 288.086 339.307Z" fill="#C19E00"/>
<path d="M296.234 150.58C295.982 150.58 295.744 150.661 295.539 150.814C295.291 151 295.125 151.272 295.082 151.582C295.034 151.887 295.111 152.197 295.301 152.449C295.487 152.697 295.758 152.859 296.068 152.907C296.696 153.002 297.296 152.559 297.392 151.92C297.439 151.615 297.358 151.305 297.173 151.052C296.987 150.805 296.715 150.642 296.406 150.595L296.234 150.58ZM296.239 154.142C296.12 154.142 296.006 154.132 295.887 154.113C294.587 153.923 293.682 152.707 293.877 151.4C293.968 150.771 294.301 150.213 294.815 149.832C295.325 149.45 295.953 149.293 296.587 149.389C297.887 149.579 298.792 150.795 298.596 152.101C298.42 153.289 297.401 154.142 296.239 154.142Z" fill="white"/>
<path d="M302.835 151.559C302.263 151.559 301.763 151.978 301.678 152.56C301.635 152.865 301.711 153.175 301.897 153.428C302.082 153.676 302.354 153.838 302.663 153.885C302.973 153.933 303.278 153.857 303.53 153.666C303.782 153.48 303.944 153.208 303.987 152.898C304.035 152.593 303.959 152.283 303.773 152.031C303.587 151.783 303.316 151.621 303.006 151.573L302.835 151.559ZM302.84 155.12C302.72 155.12 302.601 155.111 302.482 155.092C301.182 154.901 300.282 153.685 300.473 152.379C300.663 151.077 301.882 150.176 303.182 150.367C303.816 150.457 304.368 150.791 304.749 151.306C305.13 151.816 305.287 152.446 305.197 153.08C305.102 153.709 304.768 154.267 304.254 154.648C303.84 154.958 303.349 155.12 302.84 155.12Z" fill="white"/>
<path d="M309.302 152.515C309.054 152.515 308.816 152.596 308.611 152.749C308.359 152.935 308.197 153.207 308.149 153.516C308.106 153.822 308.183 154.132 308.368 154.384C308.554 154.632 308.825 154.794 309.135 154.842C309.768 154.932 310.368 154.494 310.459 153.855C310.554 153.221 310.116 152.625 309.478 152.53L309.302 152.515ZM309.306 156.077C309.192 156.077 309.073 156.067 308.959 156.048C307.654 155.857 306.754 154.637 306.944 153.335C307.14 152.034 308.354 151.133 309.654 151.323C310.959 151.514 311.859 152.735 311.668 154.036C311.492 155.223 310.468 156.077 309.306 156.077Z" fill="white"/>
<path d="M400.359 175.898L400.269 175.894L296.729 160.561C296.4 160.513 296.167 160.198 296.219 159.869C296.267 159.536 296.572 159.307 296.91 159.354L400.445 174.683C400.778 174.735 401.011 175.045 400.959 175.379C400.916 175.679 400.654 175.898 400.359 175.898Z" fill="#BE9B00"/>
<path d="M357.195 307.568L357.105 307.563L301.863 299.382C301.53 299.334 301.297 299.024 301.349 298.69C301.397 298.357 301.702 298.118 302.04 298.175L357.286 306.357C357.619 306.405 357.848 306.715 357.795 307.048C357.753 307.353 357.491 307.568 357.195 307.568Z" fill="white"/>
<path d="M324.488 309.471L324.398 309.461L300.887 305.981C300.553 305.928 300.325 305.623 300.372 305.285C300.42 304.956 300.725 304.722 301.063 304.774L324.579 308.255C324.912 308.303 325.141 308.612 325.093 308.946C325.045 309.251 324.788 309.471 324.488 309.471Z" fill="white"/>
<path d="M316.568 314.606L316.478 314.601L299.977 312.155C299.643 312.107 299.41 311.797 299.462 311.464C299.51 311.13 299.824 310.896 300.153 310.949L316.654 313.395C316.987 313.442 317.216 313.752 317.168 314.086C317.125 314.386 316.864 314.606 316.568 314.606Z" fill="white"/>
<path d="M356.218 314.166L356.128 314.161L331.831 310.562C331.498 310.514 331.269 310.204 331.317 309.87C331.364 309.537 331.674 309.303 332.007 309.356L356.309 312.95C356.642 313.003 356.871 313.313 356.823 313.646C356.776 313.947 356.518 314.166 356.218 314.166Z" fill="white"/>
<path d="M350.451 261.675L350.361 261.665L295.114 253.488C294.781 253.436 294.552 253.126 294.6 252.792C294.652 252.459 294.957 252.225 295.295 252.277L350.537 260.459C350.87 260.511 351.099 260.821 351.051 261.155C351.008 261.455 350.746 261.675 350.451 261.675Z" fill="white"/>
<path d="M317.745 263.573L317.655 263.568L294.144 260.083C293.81 260.035 293.577 259.725 293.629 259.391C293.677 259.058 293.987 258.829 294.32 258.876L317.836 262.357C318.164 262.409 318.398 262.719 318.345 263.053C318.302 263.353 318.04 263.573 317.745 263.573Z" fill="white"/>
<path d="M342.175 273.503L342.08 273.493L294.406 266.089C294.072 266.037 293.844 265.727 293.896 265.393C293.949 265.059 294.258 264.835 294.591 264.883L342.271 272.287C342.599 272.34 342.828 272.654 342.78 272.983C342.733 273.284 342.471 273.503 342.175 273.503Z" fill="white"/>
<path d="M349.476 268.273L349.385 268.264L325.084 264.669C324.755 264.616 324.522 264.306 324.57 263.973C324.622 263.639 324.927 263.41 325.265 263.463L349.562 267.057C349.895 267.11 350.128 267.42 350.076 267.749C350.033 268.054 349.771 268.273 349.476 268.273Z" fill="white"/>
<path d="M294.744 168.851L372.772 180.408C374.039 180.594 374.92 181.781 374.729 183.049L371.739 203.317C371.548 204.59 370.367 205.467 369.096 205.281L302.387 195.403L293.067 202.492L294.291 194.201L291.072 193.724C289.8 193.538 288.919 192.356 289.11 191.083L292.105 170.815C292.291 169.542 293.472 168.665 294.744 168.851Z" fill="#9A7E00"/>
<path d="M371.739 203.927L371.649 203.922C371.316 203.869 371.087 203.56 371.135 203.226L374.13 182.963C374.197 182.505 374.082 182.052 373.806 181.685C373.535 181.318 373.135 181.08 372.682 181.013L324.236 173.837C323.903 173.79 323.674 173.48 323.722 173.146C323.774 172.812 324.089 172.588 324.417 172.631L372.858 179.802C373.635 179.916 374.32 180.326 374.787 180.96C375.254 181.59 375.449 182.362 375.335 183.139L372.339 203.407C372.297 203.707 372.035 203.927 371.739 203.927Z" fill="#BE9B00"/>
<path d="M360.472 185.486L360.381 185.481L305.135 177.3C304.801 177.252 304.573 176.942 304.621 176.609C304.673 176.275 304.978 176.046 305.316 176.094L360.557 184.275C360.891 184.323 361.124 184.633 361.072 184.966C361.029 185.272 360.767 185.486 360.472 185.486Z" fill="white"/>
<path d="M327.765 187.388L327.674 187.379L304.163 183.898C303.83 183.85 303.597 183.54 303.649 183.207C303.697 182.873 304.006 182.644 304.339 182.692L327.855 186.172C328.184 186.22 328.417 186.53 328.37 186.864C328.322 187.169 328.065 187.388 327.765 187.388Z" fill="white"/>
<path d="M352.195 197.315L352.1 197.31L304.425 189.906C304.092 189.854 303.863 189.539 303.916 189.205C303.968 188.876 304.282 188.652 304.611 188.7L352.29 196.104C352.623 196.156 352.852 196.466 352.8 196.8C352.752 197.101 352.49 197.315 352.195 197.315Z" fill="white"/>
<path d="M359.495 192.084L359.404 192.079L335.108 188.479C334.774 188.431 334.541 188.122 334.593 187.788C334.641 187.454 334.946 187.225 335.284 187.273L359.585 190.873C359.919 190.92 360.147 191.23 360.1 191.564C360.052 191.864 359.795 192.084 359.495 192.084Z" fill="white"/>
<path d="M369.653 224.371L369.563 224.366L314.316 216.184C313.983 216.132 313.755 215.822 313.802 215.493C313.85 215.159 314.155 214.926 314.497 214.978L369.739 223.155C370.072 223.207 370.301 223.517 370.253 223.851C370.21 224.151 369.948 224.371 369.653 224.371Z" fill="white"/>
<path d="M336.945 226.268L336.855 226.263L313.339 222.783C313.011 222.73 312.777 222.42 312.83 222.087C312.877 221.753 313.192 221.524 313.52 221.572L337.031 225.057C337.364 225.105 337.598 225.415 337.545 225.748C337.503 226.053 337.241 226.268 336.945 226.268Z" fill="white"/>
<path d="M329.021 231.408L328.931 231.403L312.43 228.957C312.096 228.91 311.868 228.6 311.915 228.266C311.963 227.932 312.273 227.699 312.606 227.751L329.112 230.192C329.44 230.245 329.674 230.554 329.626 230.888C329.578 231.189 329.317 231.408 329.021 231.408Z" fill="white"/>
<path d="M368.677 230.971L368.587 230.966L344.285 227.366C343.952 227.314 343.723 227.004 343.771 226.67C343.823 226.341 344.128 226.107 344.466 226.155L368.763 229.755C369.096 229.807 369.33 230.117 369.277 230.451C369.234 230.751 368.972 230.971 368.677 230.971Z" fill="white"/>
<path d="M171.075 337.329C181.934 320.281 189.03 319.602 203.386 333.212L226.787 310.285L224.56 291.029L222.257 271.114L221.028 260.48C221.028 257.501 216.54 252.848 211.909 253.53L196.259 255.267L159.948 259.299L125.296 263.146C128.803 262.938 132.459 265.051 133.34 268.962L135.112 284.261L135.93 291.329L137.026 300.921L138.932 317.593L171.075 337.329Z" fill="white"/>
<path d="M249.293 288.234C249.293 288.234 236.843 280.213 222.257 271.114L224.56 291.029L249.293 288.234Z" fill="#BB9900"/>
<path d="M176.754 245.772C176.358 243.792 169.516 249.899 159.948 259.299L196.259 255.267C184.943 248.609 176.416 244.081 176.754 245.772Z" fill="#BB9900"/>
<path d="M127.1 292.269C123.129 296.205 119.276 299.961 115.703 303.33L137.026 300.921L135.93 291.329L127.1 292.269Z" fill="#BB9900"/>
<path d="M115.703 303.33L138.932 317.593L137.026 300.921L115.703 303.33Z" fill="#BB9900"/>
<path d="M226.787 310.285L249.293 288.234L224.56 291.029L226.787 310.285Z" fill="#BB9900"/>
<path d="M118.197 270.637L120.712 292.95L127.1 292.269L135.93 291.329L135.112 284.261L133.34 268.962C132.459 265.051 128.803 262.938 125.296 263.146C121.927 263.346 118.696 265.688 118.197 270.637Z" fill="#EDF2F9"/>
<path d="M203.386 333.212C189.03 319.602 181.934 320.281 171.075 337.329L136.096 386.596L248.732 373.645L203.386 333.212Z" fill="#FFD000"/>
<path d="M257.092 372.683C258.19 372.557 258.978 371.564 258.85 370.465L249.293 288.234L226.787 310.285L203.386 333.212L248.732 373.645L257.092 372.683Z" fill="#FFD000"/>
<path d="M115.703 303.33L125.261 385.83C125.388 386.927 126.379 387.713 127.476 387.587L136.096 386.596L171.075 337.329L138.932 317.593L115.703 303.33Z" fill="#FFD000"/>
<path d="M249.293 288.234L258.85 370.465C258.978 371.564 258.19 372.557 257.092 372.683L248.732 373.645M249.293 288.234L226.787 310.285M249.293 288.234C249.293 288.234 236.843 280.213 222.257 271.114M249.293 288.234L224.56 291.029M115.703 303.33L125.261 385.83C125.388 386.927 126.379 387.713 127.476 387.587L136.096 386.596M115.703 303.33L138.932 317.593M115.703 303.33C119.276 299.961 123.129 296.205 127.1 292.269M115.703 303.33L137.026 300.921M203.386 333.212C189.03 319.602 181.934 320.281 171.075 337.329M203.386 333.212L248.732 373.645M203.386 333.212L226.787 310.285M171.075 337.329L136.096 386.596M171.075 337.329L138.932 317.593M136.096 386.596L248.732 373.645M135.93 291.329L135.112 284.261L133.34 268.962C132.459 265.051 128.803 262.938 125.296 263.146M135.93 291.329L127.1 292.269M135.93 291.329L137.026 300.921M138.932 317.593L137.026 300.921M226.787 310.285L224.56 291.029M125.296 263.146C121.927 263.346 118.696 265.688 118.197 270.637L120.712 292.95L127.1 292.269M125.296 263.146L159.948 259.299M159.948 259.299C169.516 249.899 176.358 243.792 176.754 245.772C176.416 244.081 184.943 248.609 196.259 255.267M159.948 259.299L196.259 255.267M196.259 255.267L211.909 253.53C216.54 252.848 221.028 257.501 221.028 260.48L222.257 271.114M222.257 271.114L224.56 291.029" stroke="#B49200" stroke-width="0.5"/>
<path d="M147.868 279.037L210.548 272.052M149.176 289.623L175.774 286.677M211.856 282.638L183.405 285.804M150.266 300.646L212.947 293.661M151.465 312.978L178.718 309.814" stroke="#B49200" stroke-width="0.8" stroke-linecap="round"/>
</g>
<defs>
<filter id="filter0_d_390_499" x="0" y="0" width="518" height="518" filterUnits="userSpaceOnUse" color-interpolation-filters="sRGB">
<feFlood flood-opacity="0" result="BackgroundImageFix"/>
<feColorMatrix in="SourceAlpha" type="matrix" values="0 0 0 0 0 0 0 0 0 0 0 0 0 0 0 0 0 0 127 0" result="hardAlpha"/>
<feMorphology radius="1" operator="dilate" in="SourceAlpha" result="effect1_dropShadow_390_499"/>
<feOffset dx="1" dy="1"/>
<feGaussianBlur stdDeviation="4"/>
<feComposite in2="hardAlpha" operator="out"/>
<feColorMatrix type="matrix" values="0 0 0 0 0 0 0 0 0 0 0 0 0 0 0 0 0 0 0.1 0"/>
<feBlend mode="normal" in2="BackgroundImageFix" result="effect1_dropShadow_390_499"/>
<feBlend mode="normal" in="SourceGraphic" in2="effect1_dropShadow_390_499" result="shape"/>
</filter>
</defs>
</svg>
