<svg width="518" height="518" viewBox="0 0 518 518" fill="none" xmlns="http://www.w3.org/2000/svg">
<g filter="url(#filter0_d_390_438)">
<path d="M86.0198 285.171C63.0391 285.171 44.3413 303.869 44.3413 326.853C44.3413 349.834 63.0391 368.536 86.0198 368.536C109.005 368.536 127.702 349.834 127.702 326.853C127.702 303.869 109.005 285.171 86.0198 285.171ZM86.0198 370.706C61.8389 370.706 42.167 351.034 42.167 326.853C42.167 302.668 61.8389 282.997 86.0198 282.997C110.201 282.997 129.877 302.668 129.877 326.853C129.877 351.034 110.201 370.706 86.0198 370.706Z" fill="#FFD000" stroke="#FFD000" stroke-width="4"/>
<path d="M86.0219 293.035C104.7 293.035 119.839 308.173 119.839 326.852C119.839 345.526 104.7 360.668 86.0219 360.668C67.3471 360.668 52.2051 345.526 52.2051 326.852C52.2051 308.173 67.3471 293.035 86.0219 293.035Z" fill="#FFD000" fill-opacity="0.5"/>
<path d="M90.1391 343.475L60.7783 338.103L79.8801 314.166L109.241 319.538L90.1391 343.475Z" fill="#FFD000"/>
<path d="M60.7783 332.301V338.104L65.0337 336.275L65.4972 330.969L60.7783 332.301Z" fill="#FFD000"/>
<path d="M97.2521 318.386L80.1648 315.258L69.4679 328.663L62.125 331.382V336.601L89.8544 341.673L107.894 319.064V314.448L97.2521 318.386Z" fill="white"/>
<path d="M90.1391 337.672L60.7783 332.3L79.8801 308.363L109.241 313.735L90.1391 337.672Z" fill="#FFD000"/>
<path d="M98.2587 320.159L79.0547 316.644L81.6532 313.429L100.861 316.943L98.2587 320.159Z" fill="white"/>
<path d="M149.586 182.446C162.79 195.65 162.79 217.062 149.586 230.27C136.378 243.474 114.966 243.474 101.762 230.27C88.5545 217.062 88.5545 195.65 101.762 182.446C114.966 169.239 136.378 169.239 149.586 182.446Z" fill="#FFD000" fill-opacity="0.5"/>
<path d="M125.675 164.68C114.543 164.68 104.075 169.014 96.2046 176.889C79.9525 193.137 79.9525 219.578 96.2046 235.83C112.452 252.082 138.894 252.078 155.146 235.83C171.394 219.578 171.394 193.137 155.146 176.889C147.271 169.014 136.808 164.68 125.675 164.68ZM125.675 250.212C114.439 250.212 103.202 245.936 94.6504 237.384C77.5423 220.276 77.5423 192.438 94.6504 175.334C111.758 158.226 139.592 158.226 156.7 175.334C173.804 192.438 173.804 220.276 156.7 237.384C148.144 245.936 136.907 250.212 125.675 250.212Z" fill="#FFD000" stroke="#FFD000" stroke-width="4"/>
<path d="M144.612 194.818C143.182 193.435 141.028 192.632 138.751 192.632C136.598 192.632 134.547 193.351 133.116 194.607L129.956 197.377C127.259 198.709 124.091 198.709 121.394 197.377L118.233 194.607C116.803 193.351 114.752 192.632 112.598 192.632C110.321 192.632 108.164 193.435 106.733 194.818C105.135 196.362 104.263 198.285 104.263 200.271V219.982C104.263 221.577 105.923 222.873 107.971 222.873C109.533 222.873 110.927 222.11 111.46 220.964L116.35 210.409C116.941 209.132 118.496 208.282 120.237 208.282H131.113C132.853 208.282 134.408 209.132 134.999 210.409L139.89 220.964C140.419 222.11 141.813 222.873 143.375 222.873C145.422 222.873 147.083 221.577 147.083 219.982V200.271C147.083 198.285 146.214 196.362 144.612 194.818Z" fill="#FFD000"/>
<path d="M115.966 202.085C115.966 204.074 114.353 205.687 112.368 205.687C110.379 205.687 108.77 204.074 108.77 202.085C108.77 200.1 110.379 198.49 112.368 198.49C114.353 198.49 115.966 200.1 115.966 202.085Z" fill="white"/>
<path d="M139.948 205.688H139.521C139.061 205.688 138.686 205.312 138.686 204.848V198.458C138.686 197.994 139.061 197.622 139.521 197.622H139.948C140.408 197.622 140.784 197.994 140.784 198.458V204.848C140.784 205.312 140.408 205.688 139.948 205.688Z" fill="white"/>
<path d="M135.703 201.866V201.439C135.703 200.979 136.075 200.604 136.539 200.604H142.929C143.393 200.604 143.769 200.979 143.769 201.439V201.866C143.769 202.326 143.393 202.702 142.929 202.702H136.539C136.075 202.702 135.703 202.326 135.703 201.866Z" fill="white"/>
<path d="M128.335 205.687H123.014C122.627 205.687 122.313 205.373 122.313 204.982V204.628C122.313 204.242 122.627 203.928 123.014 203.928H128.335C128.722 203.928 129.036 204.242 129.036 204.628V204.982C129.036 205.373 128.722 205.687 128.335 205.687Z" fill="white"/>
<path d="M256.38 109.691C233.408 109.691 214.718 128.381 214.718 151.353C214.718 174.329 233.408 193.015 256.38 193.015C279.352 193.015 298.043 174.329 298.043 151.353C298.043 128.381 279.352 109.691 256.38 109.691ZM256.38 195.21C232.197 195.21 212.523 175.536 212.523 151.353C212.523 127.169 232.197 107.5 256.38 107.5C280.564 107.5 300.237 127.169 300.237 151.353C300.237 175.536 280.564 195.21 256.38 195.21Z" fill="#FFD000" stroke="#FFD000" stroke-width="4"/>
<path d="M290.197 151.357C290.197 170.031 275.055 185.173 256.38 185.173C237.706 185.173 222.563 170.031 222.563 151.357C222.563 132.678 237.706 117.536 256.38 117.536C275.055 117.536 290.197 132.678 290.197 151.357Z" fill="#FFD000" fill-opacity="0.5"/>
<path d="M246.99 167.912C245.088 169.817 236.278 171.726 236.278 171.726C236.278 171.726 238.191 162.919 240.096 161.014C242.001 159.109 245.088 159.109 246.99 161.014C248.895 162.919 248.895 166.007 246.99 167.912Z" fill="white"/>
<path d="M245.483 162.521C243.68 160.722 243.756 157.78 245.651 156.076L272.665 131.788C273.65 130.897 275.161 130.941 276.099 131.879C277.037 132.817 277.077 134.321 276.19 135.31L251.931 162.346C250.227 164.244 247.282 164.324 245.483 162.521Z" fill="#FFD000"/>
<path d="M273.059 162.367L267.793 167.634L238.213 138.054L243.479 132.788L273.059 162.367Z" fill="#FFD000"/>
<path d="M237.852 131.966L237.392 132.426C236.063 133.751 236.063 135.904 237.392 137.229L238.213 138.054L243.479 132.787L242.658 131.966C241.33 130.638 239.18 130.638 237.852 131.966Z" fill="white"/>
<path d="M276.255 171.992L267.792 167.634L273.058 162.368L277.416 170.831C277.792 171.561 276.985 172.367 276.255 171.992Z" fill="white"/>
<path d="M428.977 283.18C405.993 283.18 387.297 301.876 387.297 324.86C387.297 347.84 405.993 366.541 428.977 366.541C451.961 366.541 470.657 347.84 470.657 324.86C470.657 301.876 451.961 283.18 428.977 283.18ZM428.977 368.713C404.796 368.713 385.12 349.042 385.12 324.86C385.12 300.679 404.796 281.003 428.977 281.003C453.158 281.003 472.834 300.679 472.834 324.86C472.834 349.042 453.158 368.713 428.977 368.713Z" fill="#FFD000" stroke="#FFD000" stroke-width="4"/>
<path d="M428.978 291.042C410.303 291.042 395.161 306.18 395.161 324.858C395.161 343.533 410.303 358.675 428.978 358.675C447.656 358.675 462.795 343.533 462.795 324.858C462.795 306.18 447.656 291.042 428.978 291.042Z" fill="#FFD000" fill-opacity="0.5"/>
<path d="M443.365 342.183L440.792 340.504L444.53 334.785C446.42 331.832 447.424 328.395 447.424 324.858C447.424 314.687 439.15 306.41 428.979 306.41C418.807 306.41 410.534 314.687 410.534 324.858C410.534 328.398 411.538 331.836 413.439 334.8L417.103 340.515L414.519 342.172L410.851 336.456C408.636 332.997 407.461 328.986 407.461 324.858C407.461 312.993 417.114 303.34 428.979 303.34C440.843 303.34 450.497 312.993 450.497 324.858C450.497 328.986 449.325 332.997 447.11 336.456L443.365 342.183Z" fill="#FFD000"/>
<path d="M422.045 342.26L421.578 342.566C420.227 343.453 418.413 343.081 417.527 341.731L412.373 333.902C411.486 332.552 411.859 330.738 413.205 329.851L413.676 329.541C415.027 328.654 416.837 329.027 417.727 330.377L422.88 338.209C423.767 339.556 423.395 341.369 422.045 342.26Z" fill="white"/>
<path d="M435.912 342.26L436.379 342.566C437.73 343.453 439.543 343.081 440.43 341.731L445.587 333.902C446.474 332.552 446.102 330.738 444.751 329.851L444.28 329.541C442.934 328.654 441.12 329.027 440.229 330.377L435.076 338.209C434.189 339.556 434.562 341.369 435.912 342.26Z" fill="white"/>
<path d="M432.671 321.497C432.679 321.304 432.697 321.11 432.719 320.92C432.763 320.461 432.81 319.99 432.715 319.486C432.565 318.723 432.084 318.03 431.419 317.629C430.777 317.234 430.058 317.18 429.376 317.18H428.744V326.362C428.365 326.139 427.927 326.001 427.452 326.001C426.044 326.001 424.901 327.143 424.901 328.552C424.901 329.96 426.044 331.103 427.452 331.103C428.861 331.103 430.003 329.96 430.003 328.552V318.468C430.299 318.504 430.551 318.57 430.766 318.705C431.131 318.924 431.394 319.307 431.478 319.723C431.536 320.045 431.503 320.41 431.463 320.793C431.441 321.015 431.419 321.238 431.412 321.461C431.387 322.483 431.755 323.285 432.427 323.672L433.054 322.577C432.755 322.41 432.664 321.91 432.671 321.497Z" fill="#FFD000"/>
<path d="M171.351 326.174V328.043H142.826V326.174H171.351Z" fill="#FFD000"/>
<path d="M191.569 261.238L190.245 262.559L170.077 242.392L171.398 241.071L191.569 261.238Z" fill="#FFD000"/>
<path d="M256.675 231.852H258.543V203.331H256.675V231.852Z" fill="#FFD000"/>
<path d="M343.884 326.174V328.043H372.409V326.174H343.884Z" fill="#FFD000"/>
<path d="M322.264 262.64L323.585 263.961L343.752 243.793L342.435 242.472L322.264 262.64Z" fill="#FFD000"/>
<circle cx="257.169" cy="307.602" r="29.4674" stroke="#FFD000" stroke-width="5"/>
<circle cx="257.168" cy="307.603" r="19.1439" fill="#FFD000"/>
<path d="M248.035 353.059H266.302C291.877 353.059 312.61 373.791 312.61 399.366C312.61 402.478 310.087 405 306.975 405H207.362C204.25 405 201.728 402.478 201.728 399.366C201.728 373.791 222.46 353.059 248.035 353.059Z" stroke="#FFD000" stroke-width="5"/>
<path d="M212.603 393.647C215.527 375.992 230.796 363.044 248.692 363.044H265.702C283.489 363.044 298.59 376.08 301.188 393.676V393.676C301.252 394.109 300.916 394.498 300.478 394.498H213.325C212.873 394.498 212.529 394.093 212.603 393.647V393.647Z" fill="#FFD000"/>
<path d="M384.252 163.088C373.121 163.088 362.658 167.423 354.787 175.294C338.54 191.541 338.54 217.978 354.787 234.224C362.658 242.096 373.121 246.43 384.252 246.43C395.384 246.43 405.846 242.096 413.722 234.224C429.964 217.978 429.964 191.541 413.722 175.294C405.846 167.423 395.384 163.088 384.252 163.088ZM384.252 248.612C372.538 248.612 361.526 244.05 353.242 235.77C336.143 218.672 336.143 190.847 353.242 173.749C361.526 165.464 372.538 160.902 384.252 160.902C395.966 160.902 406.978 165.464 415.263 173.749C432.361 190.847 432.361 218.672 415.263 235.77C406.978 244.05 395.966 248.612 384.252 248.612Z" fill="#FFD000" stroke="#FFD000" stroke-width="4"/>
<path d="M360.34 180.846C347.135 194.05 347.135 215.462 360.34 228.67C373.547 241.874 394.959 241.874 408.163 228.67C421.371 215.462 421.371 194.05 408.163 180.846C394.959 167.638 373.547 167.638 360.34 180.846Z" fill="#FFD000" fill-opacity="0.5"/>
<path d="M387.117 220.432H381.387V209.272H387.117V220.432Z" fill="#FFD000"/>
<path d="M385.887 211.112H382.558C375.89 211.112 370.485 205.707 370.485 199.039V189.784H397.959V199.039C397.959 205.707 392.554 211.112 385.887 211.112Z" fill="#FFD000"/>
<path d="M394.584 222.626H373.92V218.236H394.584V222.626Z" fill="#FFD000"/>
<path d="M372.354 212.48C371.295 212.48 370.233 212.035 369.533 211.218C369.065 210.674 369.131 209.856 369.675 209.393C370.215 208.929 371.033 208.991 371.5 209.535C371.792 209.878 372.408 210.002 372.817 209.787C373.219 209.579 373.478 209.006 373.365 208.564C373.178 207.838 372.23 207.265 371.423 206.849L370.357 206.305C367.609 204.915 364.766 203.473 362.744 200.787C360.777 198.174 359.398 194.214 361.409 190.948C362.558 189.079 364.846 188.003 367.193 188.214C369.157 188.386 371.084 189.39 372.62 191.043C373.109 191.565 373.08 192.382 372.558 192.871C372.032 193.357 371.215 193.327 370.73 192.806C369.624 191.623 368.292 190.908 366.971 190.791C365.602 190.674 364.244 191.28 363.613 192.306C362.281 194.466 363.361 197.302 364.814 199.232C366.474 201.437 368.93 202.681 371.529 203.999L372.609 204.55C373.897 205.214 375.43 206.199 375.872 207.922C376.281 209.535 375.481 211.323 374.007 212.086C373.492 212.353 372.923 212.48 372.354 212.48Z" fill="#FFD000"/>
<path d="M396.15 212.48C395.58 212.48 395.011 212.352 394.497 212.086C393.026 211.323 392.223 209.535 392.632 207.926C393.073 206.203 394.606 205.214 395.891 204.55L396.978 203.999C399.577 202.681 402.029 201.437 403.69 199.232C405.142 197.302 406.223 194.466 404.89 192.305C404.259 191.28 402.912 190.674 401.533 190.791C400.212 190.908 398.88 191.623 397.777 192.805C397.292 193.331 396.471 193.356 395.949 192.871C395.423 192.382 395.394 191.565 395.883 191.043C397.42 189.389 399.35 188.386 401.307 188.214C403.69 188.01 405.945 189.083 407.095 190.948C409.109 194.214 407.726 198.174 405.759 200.787C403.737 203.473 400.894 204.915 398.146 206.305L397.084 206.849C396.274 207.265 395.329 207.838 395.139 208.564C395.026 209.013 395.278 209.575 395.69 209.787C396.088 209.998 396.708 209.882 397.007 209.535C397.475 208.991 398.292 208.929 398.832 209.393C399.372 209.856 399.438 210.674 398.971 211.217C398.27 212.035 397.212 212.48 396.15 212.48Z" fill="#FFD000"/>
<path d="M376.131 193.146C376.221 192.869 376.612 192.869 376.702 193.146L377.226 194.757C377.266 194.881 377.381 194.965 377.511 194.965H379.206C379.496 194.965 379.617 195.336 379.382 195.507L378.011 196.503C377.906 196.58 377.862 196.715 377.902 196.839L378.426 198.45C378.515 198.727 378.199 198.956 377.964 198.786L376.593 197.79C376.488 197.713 376.346 197.713 376.24 197.79L374.87 198.786C374.634 198.956 374.318 198.727 374.408 198.45L374.932 196.839C374.972 196.715 374.928 196.58 374.823 196.503L373.452 195.507C373.217 195.336 373.337 194.965 373.628 194.965H375.323C375.452 194.965 375.568 194.881 375.608 194.757L376.131 193.146Z" fill="white"/>
<path d="M383.937 193.146C384.027 192.87 384.418 192.87 384.508 193.146L385.031 194.758C385.072 194.881 385.187 194.965 385.317 194.965H387.011C387.302 194.965 387.423 195.337 387.188 195.508L385.817 196.504C385.712 196.58 385.668 196.716 385.708 196.839L386.231 198.451C386.321 198.727 386.005 198.957 385.77 198.786L384.399 197.79C384.294 197.714 384.151 197.714 384.046 197.79L382.675 198.786C382.44 198.957 382.124 198.727 382.214 198.451L382.737 196.839C382.777 196.716 382.733 196.58 382.628 196.504L381.257 195.508C381.022 195.337 381.143 194.965 381.434 194.965H383.128C383.258 194.965 383.373 194.881 383.413 194.758L383.937 193.146Z" fill="white"/>
<path d="M391.745 193.146C391.835 192.87 392.226 192.87 392.315 193.146L392.839 194.758C392.879 194.881 392.994 194.965 393.124 194.965H394.819C395.109 194.965 395.23 195.337 394.995 195.508L393.624 196.504C393.519 196.58 393.475 196.716 393.515 196.839L394.039 198.451C394.129 198.727 393.812 198.957 393.577 198.786L392.206 197.79C392.101 197.714 391.959 197.714 391.854 197.79L390.483 198.786C390.248 198.957 389.931 198.727 390.021 198.451L390.545 196.839C390.585 196.716 390.541 196.58 390.436 196.504L389.065 195.508C388.83 195.337 388.951 194.965 389.241 194.965H390.936C391.066 194.965 391.181 194.881 391.221 194.758L391.745 193.146Z" fill="white"/>
<rect x="373.92" y="219.753" width="20.6639" height="1.52484" fill="white"/>
</g>
<defs>
<filter id="filter0_d_390_438" x="0" y="0" width="518" height="518" filterUnits="userSpaceOnUse" color-interpolation-filters="sRGB">
<feFlood flood-opacity="0" result="BackgroundImageFix"/>
<feColorMatrix in="SourceAlpha" type="matrix" values="0 0 0 0 0 0 0 0 0 0 0 0 0 0 0 0 0 0 127 0" result="hardAlpha"/>
<feMorphology radius="1" operator="dilate" in="SourceAlpha" result="effect1_dropShadow_390_438"/>
<feOffset dx="1" dy="1"/>
<feGaussianBlur stdDeviation="4"/>
<feComposite in2="hardAlpha" operator="out"/>
<feColorMatrix type="matrix" values="0 0 0 0 0 0 0 0 0 0 0 0 0 0 0 0 0 0 0.1 0"/>
<feBlend mode="normal" in2="BackgroundImageFix" result="effect1_dropShadow_390_438"/>
<feBlend mode="normal" in="SourceGraphic" in2="effect1_dropShadow_390_438" result="shape"/>
</filter>
</defs>
</svg>
