<svg width="1650" height="1032" viewBox="0 0 1650 1032" fill="none" xmlns="http://www.w3.org/2000/svg">
<rect width="1650" height="1032" fill="url(#paint0_radial_494_438)"/>
<ellipse cx="825" cy="516" rx="125.039" ry="125.13" fill="#FFD000"/>
<path d="M817.99 443.805C817.863 423.14 812.984 422.12 803.049 426.542C802.572 426.754 802.134 426.193 802.466 425.79C818.445 406.427 836.878 421.194 837.966 433.535C838 433.92 837.788 434.278 837.446 434.457L818.725 444.264C818.392 444.438 817.993 444.181 817.99 443.805Z" fill="#333333"/>
<path d="M837.106 583.623L819.55 593.098C818.884 593.457 818.075 592.975 818.075 592.218V452.341L836.682 442.3C837.348 441.94 838.157 442.423 838.157 443.18V581.863C838.157 582.598 837.753 583.274 837.106 583.623Z" fill="#333333"/>
<path d="M863.595 613.923V514.679V507.455C869.682 502.182 875.859 495.867 882.039 488.399C882.641 487.672 883.834 488.063 883.834 489.007V602.836C883.834 603.551 883.452 604.212 882.833 604.569L865.094 614.789C864.427 615.173 863.595 614.692 863.595 613.923Z" fill="#333333"/>
<path d="M811.973 445.889V447.322C811.973 447.652 811.796 447.971 811.523 448.158C741.826 496.166 794.381 562.788 859.599 510.778C860.876 509.759 860.976 517.655 859.599 519.111C792.181 590.361 715.852 496.526 810.463 445.039C811.125 444.678 811.973 445.135 811.973 445.889Z" fill="#333333"/>
<defs>
<radialGradient id="paint0_radial_494_438" cx="0" cy="0" r="1" gradientUnits="userSpaceOnUse" gradientTransform="translate(825 516) rotate(90) scale(2304.79 2385.56)">
<stop stop-color="#BD9A00"/>
<stop offset="0.431888" stop-color="#333333"/>
<stop offset="0.615016" stop-color="#333333" stop-opacity="0.5"/>
</radialGradient>
</defs>
</svg>
