<svg width="519" height="518" viewBox="0 0 519 518" fill="none" xmlns="http://www.w3.org/2000/svg">
<g filter="url(#filter0_d_387_438)">
<path d="M480.149 362.238H36.7949C34.0719 362.238 31.8936 359.631 31.8936 356.373C31.8936 353.114 34.0719 350.507 36.7949 350.507H480.204C482.927 350.507 485.105 353.114 485.105 356.373C485.051 359.631 482.872 362.238 480.149 362.238Z" fill="#FFD000"/>
<path d="M283.225 350.182H206.546V355.656H283.225V350.182Z" fill="#FFD000"/>
<path d="M336.486 314.404H155.571C151.977 314.404 149.036 310.885 149.036 306.583V161.582C149.036 157.281 151.977 153.762 155.571 153.762H336.486C340.08 153.762 343.021 157.281 343.021 161.582V306.518C343.021 310.885 340.134 314.404 336.486 314.404Z" fill="#333333"/>
<path opacity="0.4" d="M336.921 314.404H308.548V252.624C308.548 247.671 311.87 243.696 316.009 243.696H336.921V314.404Z" fill="#FFD000"/>
<path opacity="0.4" d="M162.814 254.709H149.036V303.39C149.036 309.451 153.393 314.404 158.512 314.404H174.36V268.786C174.305 261.161 169.132 254.709 162.814 254.709Z" fill="#FFD000"/>
<path d="M337.03 314.404H155.789C152.195 314.404 149.254 310.885 149.254 306.583V161.582C149.254 157.281 152.195 153.762 155.789 153.762H337.03C340.624 153.762 343.565 157.281 343.565 161.582V306.518C343.565 310.885 340.624 314.404 337.03 314.404Z" stroke="#FFD000" stroke-width="6" stroke-miterlimit="10" stroke-linecap="round" stroke-linejoin="round"/>
<path d="M331.304 286.888V168.476H161.554V286.888H331.304Z" stroke="#FFD000" stroke-width="6" stroke-miterlimit="10" stroke-linecap="round" stroke-linejoin="round"/>
<path opacity="0.32" d="M298.309 281.168H204.748C202.624 281.168 200.936 279.082 200.936 276.606V196.709C200.936 194.167 202.678 192.147 204.748 192.147H298.309C300.433 192.147 302.121 194.232 302.121 196.709V276.541C302.121 279.082 300.433 281.168 298.309 281.168Z" fill="#FFD000"/>
<path d="M293.953 276.736H200.391C198.267 276.736 196.579 274.65 196.579 272.174V192.342C196.579 189.801 198.322 187.78 200.391 187.78H293.953C296.077 187.78 297.765 189.866 297.765 192.342V272.174C297.819 274.716 296.077 276.736 293.953 276.736Z" fill="#AFB1B2"/>
<path d="M293.953 276.736H200.391C198.267 276.736 196.579 274.65 196.579 272.174V192.342C196.579 189.801 198.322 187.78 200.391 187.78H293.953C296.077 187.78 297.765 189.866 297.765 192.342V272.174C297.819 274.716 296.077 276.736 293.953 276.736Z" fill="#333333" stroke="#FFD000" stroke-width="4" stroke-miterlimit="10" stroke-linecap="round" stroke-linejoin="round"/>
<path d="M269.228 350.182H223.591L229.255 314.404H263.564L269.228 350.182Z" fill="#333333"/>
<path d="M269.228 350.182H223.591L229.255 314.404H263.564L269.228 350.182Z" stroke="#FFD000" stroke-width="4" stroke-miterlimit="10" stroke-linecap="round" stroke-linejoin="round"/>
<path d="M283.225 350.182H206.546V355.656H283.225V350.182Z" stroke="#FFD000" stroke-width="4" stroke-miterlimit="10" stroke-linecap="round" stroke-linejoin="round"/>
<path d="M246.137 302.021C248.002 302.021 249.514 300.212 249.514 297.981C249.514 295.75 248.002 293.94 246.137 293.94C244.273 293.94 242.761 295.75 242.761 297.981C242.761 300.212 244.273 302.021 246.137 302.021Z" fill="#FFD000"/>
<path d="M286.274 268.524H192.713C190.589 268.524 188.9 266.439 188.9 263.962V184.065C188.9 181.524 190.643 179.503 192.713 179.503H286.274C288.398 179.503 290.086 181.589 290.086 184.065V263.897C290.141 266.439 288.398 268.524 286.274 268.524Z" fill="#333333"/>
<path d="M286.274 268.524H192.713C190.589 268.524 188.9 266.439 188.9 263.962V184.065C188.9 181.524 190.643 179.503 192.713 179.503H286.274C288.398 179.503 290.086 181.589 290.086 184.065V263.897C290.141 266.439 288.398 268.524 286.274 268.524Z" stroke="#FFD000" stroke-width="4" stroke-miterlimit="10" stroke-linecap="round" stroke-linejoin="round"/>
<path d="M290.141 193.255H188.9V184.261C188.9 181.655 190.698 179.439 192.93 179.439H286.383C288.452 179.439 290.141 181.459 290.141 183.936V193.255Z" fill="#333333"/>
<path d="M290.141 193.255H188.9V184.261C188.9 181.655 190.698 179.439 192.93 179.439H286.383C288.452 179.439 290.141 181.459 290.141 183.936V193.255Z" stroke="#FFD000" stroke-width="4" stroke-miterlimit="10" stroke-linecap="round" stroke-linejoin="round"/>
<path d="M198.649 188.563C199.642 188.563 200.446 187.6 200.446 186.412C200.446 185.224 199.642 184.262 198.649 184.262C197.656 184.262 196.852 185.224 196.852 186.412C196.852 187.6 197.656 188.563 198.649 188.563Z" fill="#FFD000"/>
<path d="M204.584 188.562C205.577 188.562 206.381 187.599 206.381 186.412C206.381 185.224 205.577 184.261 204.584 184.261C203.592 184.261 202.787 185.224 202.787 186.412C202.787 187.599 203.592 188.562 204.584 188.562Z" fill="#FFD000"/>
<path d="M210.466 188.562C211.459 188.562 212.263 187.599 212.263 186.412C212.263 185.224 211.459 184.261 210.466 184.261C209.474 184.261 208.669 185.224 208.669 186.412C208.669 187.599 209.474 188.562 210.466 188.562Z" fill="#FFD000"/>
<path d="M280.61 217.106H197.668C197.069 217.106 196.579 216.52 196.579 215.803V201.922C196.579 201.205 197.069 200.619 197.668 200.619H280.61C281.209 200.619 281.699 201.205 281.699 201.922V215.803C281.699 216.52 281.209 217.106 280.61 217.106Z" fill="#FFD000"/>
<path d="M221.521 232.459H197.614C197.015 232.459 196.524 231.991 196.524 231.42V225.445C196.524 224.873 197.015 224.406 197.614 224.406H221.521C222.12 224.406 222.61 224.873 222.61 225.445V231.42C222.61 231.991 222.175 232.459 221.521 232.459Z" fill="#FFD000"/>
<path d="M200.391 240.219H219.56" stroke="#FFD000" stroke-width="3" stroke-miterlimit="10" stroke-linecap="round" stroke-linejoin="round"/>
<path d="M200.391 250.886H219.56" stroke="#FFD000" stroke-width="3" stroke-miterlimit="10" stroke-linecap="round" stroke-linejoin="round"/>
<path d="M251.474 232.459H227.567C226.968 232.459 226.478 231.991 226.478 231.42V225.445C226.478 224.873 226.968 224.406 227.567 224.406H251.474C252.073 224.406 252.564 224.873 252.564 225.445V231.42C252.564 231.991 252.073 232.459 251.474 232.459Z" fill="#FFD000"/>
<path d="M230.29 240.219H248.697" stroke="#FFD000" stroke-width="3" stroke-miterlimit="10" stroke-linecap="round" stroke-linejoin="round"/>
<path d="M230.29 250.886H248.697" stroke="#FFD000" stroke-width="3" stroke-miterlimit="10" stroke-linecap="round" stroke-linejoin="round"/>
<path d="M281.372 252.312H257.464C256.865 252.312 256.375 251.676 256.375 250.899V225.884C256.375 225.106 256.865 224.47 257.464 224.47H281.372C281.971 224.47 282.461 225.106 282.461 225.884V250.899C282.461 251.676 281.971 252.312 281.372 252.312Z" fill="#FFD000"/>
<g opacity="0.09">
<path opacity="0.09" d="M280.61 257.511H257.846C256.975 257.511 256.321 256.664 256.321 255.686C256.321 254.709 257.029 253.861 257.846 253.861H280.61C281.482 253.861 282.135 254.709 282.135 255.686C282.135 256.664 281.427 257.511 280.61 257.511Z" fill="#FFD000"/>
</g>
<path d="M109.498 327.763H65.6038C65.0592 327.763 64.569 327.958 64.1878 328.414L53.5682 339.493C52.5879 340.536 52.5879 342.361 53.5682 343.338L64.1878 354.612C64.569 355.003 65.0592 355.394 65.6038 355.394H109.498C112.003 355.394 114.073 352.657 114.073 349.659V333.041C114.018 330.174 112.003 327.763 109.498 327.763ZM64.4056 344.641C62.9352 344.641 61.6827 343.208 61.6827 341.383C61.6827 339.558 62.8808 338.125 64.4056 338.125C65.9305 338.125 67.1286 339.558 67.1286 341.383C67.1286 343.208 65.9305 344.641 64.4056 344.641Z" fill="#333333"/>
<path d="M108.354 355.459H101.274V327.762H108.572C111.567 327.762 114.072 330.695 114.072 334.344V348.681C114.018 352.396 111.458 355.459 108.354 355.459Z" fill="#FFD000"/>
<path d="M109.498 327.763H65.6038C65.0592 327.763 64.569 327.958 64.1878 328.414L53.5682 339.493C52.5879 340.536 52.5879 342.361 53.5682 343.338L64.1878 354.612C64.569 355.003 65.0592 355.394 65.6038 355.394H109.498C112.003 355.394 114.073 352.657 114.073 349.659V333.041C114.018 330.174 112.003 327.763 109.498 327.763ZM64.4056 344.641C62.9352 344.641 61.6827 343.208 61.6827 341.383C61.6827 339.558 62.8808 338.125 64.4056 338.125C65.9305 338.125 67.1286 339.558 67.1286 341.383C67.1286 343.208 65.9305 344.641 64.4056 344.641Z" stroke="#FFD000" stroke-width="4" stroke-miterlimit="10" stroke-linecap="round" stroke-linejoin="round"/>
<path d="M88.4767 327.762H75.6787V355.459H88.4767V327.762Z" stroke="#FFD000" stroke-width="4" stroke-miterlimit="10" stroke-linecap="round" stroke-linejoin="round"/>
<path d="M101.275 327.762H88.4766V355.459H101.275V327.762Z" stroke="#FFD000" stroke-width="4" stroke-miterlimit="10" stroke-linecap="round" stroke-linejoin="round"/>
<path d="M108.354 355.459H101.274V327.762H108.572C111.567 327.762 114.072 330.695 114.072 334.344V348.681C114.018 352.396 111.458 355.459 108.354 355.459Z" stroke="#FFD000" stroke-width="2" stroke-miterlimit="10" stroke-linecap="round" stroke-linejoin="round"/>
<path d="M98.1706 301.435L59.0688 325.286C58.5786 325.547 58.2519 326.068 58.034 326.655L52.8059 342.295C52.3158 343.729 53.0238 345.358 54.2763 345.749L67.9456 349.92C68.4358 350.051 68.9804 349.985 69.4705 349.725L108.572 325.873C110.805 324.504 111.677 321.246 110.533 318.639L104.216 303.846C103.072 301.109 100.349 300.066 98.1706 301.435Z" fill="#333333"/>
<path d="M98.1706 301.435L59.0688 325.286C58.5786 325.547 58.2519 326.068 58.034 326.655L52.8059 342.295C52.3158 343.729 53.0238 345.358 54.2763 345.749L67.9456 349.92C68.4358 350.051 68.9804 349.985 69.4705 349.725L108.572 325.873C110.805 324.504 111.677 321.246 110.533 318.639L104.216 303.846C103.072 301.109 100.349 300.066 98.1706 301.435Z" stroke="#FFD000" stroke-width="4" stroke-miterlimit="10" stroke-linecap="round" stroke-linejoin="round"/>
<path d="M63.2075 341.904C64.9518 341.904 66.3661 340.211 66.3661 338.124C66.3661 336.037 64.9518 334.344 63.2075 334.344C61.4631 334.344 60.0488 336.037 60.0488 338.124C60.0488 340.211 61.4631 341.904 63.2075 341.904Z" fill="#FFD000"/>
<path d="M79.38 312.895L67.9795 319.855L78.3753 344.237L89.7758 337.276L79.38 312.895Z" stroke="#FFD000" stroke-width="2" stroke-miterlimit="10" stroke-linecap="round" stroke-linejoin="round"/>
<path d="M79.38 312.895L67.9795 319.855L78.3753 344.237L89.7758 337.276L79.38 312.895Z" stroke="#FFD000" stroke-width="4" stroke-miterlimit="10" stroke-linecap="round" stroke-linejoin="round"/>
<path d="M90.8058 305.899L79.4053 312.86L89.801 337.241L101.202 330.281L90.8058 305.899Z" stroke="#FFD000" stroke-width="4" stroke-miterlimit="10" stroke-linecap="round" stroke-linejoin="round"/>
<path d="M107.702 326.329L101.166 330.305L90.7646 305.932L97.2998 301.956C99.9683 300.327 103.236 301.565 104.652 304.824L110.098 317.597C111.459 320.79 110.37 324.7 107.702 326.329Z" fill="#FFD000"/>
<path d="M107.702 326.329L101.166 330.305L90.7646 305.932L97.2998 301.956C99.9683 300.327 103.236 301.565 104.652 304.824L110.098 317.597C111.459 320.79 110.37 324.7 107.702 326.329Z" stroke="#FFD000" stroke-width="2" stroke-miterlimit="10" stroke-linecap="round" stroke-linejoin="round"/>
<path d="M162.758 355.656H126.107C123.112 355.656 120.661 352.723 120.661 349.139V261.226C120.661 257.642 123.112 254.709 126.107 254.709H162.758C165.754 254.709 168.204 257.642 168.204 261.226V349.139C168.204 352.788 165.754 355.656 162.758 355.656Z" fill="#333333"/>
<path d="M168.967 285.013H120.661V261.096C120.661 257.576 123.057 254.709 125.998 254.709H163.303C166.407 254.709 168.912 257.772 168.912 261.421V285.013H168.967Z" fill="#FFD000"/>
<path d="M162.758 355.656H126.107C123.112 355.656 120.661 352.723 120.661 349.139V261.226C120.661 257.642 123.112 254.709 126.107 254.709H162.758C165.754 254.709 168.204 257.642 168.204 261.226V349.139C168.204 352.788 165.754 355.656 162.758 355.656Z" stroke="#FFD000" stroke-width="5" stroke-miterlimit="10" stroke-linecap="round" stroke-linejoin="round"/>
<path d="M162.814 355.656H126.271C123.167 355.656 120.607 352.593 120.607 348.879V336.366H168.205V349.205C168.205 352.789 165.754 355.656 162.814 355.656Z" fill="#333333"/>
<path d="M162.922 355.656H126.271C123.167 355.656 120.607 352.593 120.607 348.879V336.366H168.205V349.335C168.205 352.854 165.809 355.656 162.922 355.656Z" stroke="#FFD000" stroke-width="4" stroke-miterlimit="10" stroke-linecap="round" stroke-linejoin="round"/>
<path d="M144.787 348.878C146.292 348.878 147.51 347.419 147.51 345.62C147.51 343.82 146.292 342.361 144.787 342.361C143.284 342.361 142.064 343.82 142.064 345.62C142.064 347.419 143.284 348.878 144.787 348.878Z" fill="#FFD000"/>
<path d="M131.391 295.114H158.239" stroke="#FFD000" stroke-width="2" stroke-miterlimit="10" stroke-linecap="round" stroke-linejoin="round"/>
<path d="M136.728 305.215H153.61" stroke="#FFD000" stroke-width="2" stroke-miterlimit="10" stroke-linecap="round" stroke-linejoin="round"/>
<path d="M131.391 314.404H158.239" stroke="#FFD000" stroke-width="2" stroke-miterlimit="10" stroke-linecap="round" stroke-linejoin="round"/>
<path d="M150.386 272.174C150.386 276.017 147.799 278.973 144.787 278.973C141.775 278.973 139.188 276.017 139.188 272.174C139.188 268.331 141.775 265.375 144.787 265.375C147.799 265.375 150.386 268.331 150.386 272.174Z" fill="#333333" stroke="#FFD000"/>
<path d="M153.61 324.505C153.61 326.526 152.248 328.155 150.56 328.155H139.069C137.381 328.155 136.02 326.526 136.02 324.505C136.02 322.485 137.381 320.856 139.069 320.856H150.56C152.248 320.791 153.61 322.42 153.61 324.505Z" fill="#FFD000"/>
<path d="M446.603 343.73H314.647V248.844C314.647 246.042 316.554 243.761 318.895 243.761H442.409C444.697 243.761 446.548 245.976 446.548 248.714V343.73H446.603Z" fill="#333333"/>
<path d="M446.929 343.925H315.028V248.778C315.028 245.911 316.989 243.565 319.385 243.565H442.572C444.969 243.565 446.929 245.911 446.929 248.778V343.925Z" stroke="#FFD000" stroke-width="4" stroke-miterlimit="10" stroke-linecap="round" stroke-linejoin="round"/>
<path opacity="0.32" d="M351.026 319.617H340.897C340.298 319.617 339.808 319.031 339.808 318.314V276.801C339.808 276.085 340.298 275.498 340.897 275.498H351.026C351.625 275.498 352.115 276.085 352.115 276.801V318.379C352.115 319.031 351.625 319.617 351.026 319.617Z" fill="#FFD000"/>
<path opacity="0.32" d="M424.165 328.023H365.675C364.477 328.023 363.497 326.85 363.497 325.417V271.913C363.497 270.479 364.477 269.306 365.675 269.306H424.165C425.363 269.306 426.343 270.479 426.343 271.913V325.417C426.343 326.85 425.417 328.023 424.165 328.023Z" fill="#FFD000"/>
<path d="M439.598 335.14V252.311H322.347V335.14H439.598Z" stroke="#FFD000" stroke-width="4" stroke-miterlimit="10" stroke-linecap="round" stroke-linejoin="round"/>
<path d="M461.307 343.925H300.597V350.051C300.597 352.919 302.557 355.265 304.953 355.265H456.95C459.346 355.265 461.307 352.919 461.307 350.051V343.925Z" fill="#333333"/>
<path d="M461.307 343.925H300.597V350.051C300.597 352.919 302.557 355.265 304.953 355.265H456.95C459.346 355.265 461.307 352.919 461.307 350.051V343.925Z" stroke="#FFD000" stroke-width="5" stroke-miterlimit="10" stroke-linecap="round" stroke-linejoin="round"/>
<path d="M349.175 272.174H336.922V286.837H349.175V272.174Z" fill="#333333"/>
<path d="M349.392 272.304H337.139V286.967H349.392V272.304Z" stroke="#FFD000" stroke-width="3" stroke-miterlimit="10" stroke-linecap="round" stroke-linejoin="round"/>
<path d="M349.392 287.032H337.139V301.695H349.392V287.032Z" stroke="#FFD000" stroke-width="3" stroke-miterlimit="10" stroke-linecap="round" stroke-linejoin="round"/>
<path d="M349.175 301.5H336.922V316.163H349.175V301.5Z" fill="#333333"/>
<path d="M349.392 301.695H337.139V316.358H349.392V301.695Z" stroke="#FFD000" stroke-width="2" stroke-miterlimit="10" stroke-linecap="round" stroke-linejoin="round"/>
<path d="M420.626 323.527H362.082C360.884 323.527 359.903 322.354 359.903 320.92V267.416C359.903 265.983 360.884 264.81 362.082 264.81H420.626C421.824 264.81 422.804 265.983 422.804 267.416V320.92C422.804 322.419 421.824 323.527 420.626 323.527Z" fill="#FFD000" fill-opacity="0.4"/>
<path d="M420.626 323.527H362.082C360.884 323.527 359.903 322.354 359.903 320.92V267.416C359.903 265.983 360.884 264.81 362.082 264.81H420.626C421.824 264.81 422.804 265.983 422.804 267.416V320.92C422.804 322.419 421.824 323.527 420.626 323.527Z" stroke="#FFD000" stroke-width="4" stroke-miterlimit="10" stroke-linecap="round" stroke-linejoin="round"/>
<g opacity="0.7">
<path opacity="0.3" d="M404.397 308.083V309.06H403.58" stroke="#FFD000" stroke-width="2" stroke-linejoin="round"/>
<path opacity="0.3" d="M402.545 309.061H379.727" stroke="#FFD000" stroke-width="2" stroke-linejoin="round" stroke-dasharray="2.86 2.86"/>
<path opacity="0.3" d="M379.182 309.06H378.365V308.083" stroke="#FFD000" stroke-width="2" stroke-linejoin="round"/>
<path opacity="0.3" d="M378.365 306.714V281.298" stroke="#FFD000" stroke-width="2" stroke-linejoin="round" stroke-dasharray="3 3"/>
<path opacity="0.3" d="M378.365 280.646V279.669H379.182" stroke="#FFD000" stroke-width="2" stroke-linejoin="round"/>
<path opacity="0.3" d="M380.217 279.669H403.035" stroke="#FFD000" stroke-width="2" stroke-linejoin="round" stroke-dasharray="2.86 2.86"/>
<path opacity="0.3" d="M403.58 279.669H404.397V280.646" stroke="#FFD000" stroke-width="2" stroke-linejoin="round"/>
<path opacity="0.3" d="M404.397 281.95V307.431" stroke="#FFD000" stroke-width="2" stroke-linejoin="round" stroke-dasharray="3 3"/>
</g>
<path d="M380.434 277.388H376.567V282.015H380.434V277.388Z" fill="#333333"/>
<path d="M380.216 277.192H376.404V281.754H380.216V277.192Z" stroke="#FFD000" stroke-miterlimit="10" stroke-linejoin="round"/>
<path d="M380.434 306.714H376.567V311.341H380.434V306.714Z" fill="#333333"/>
<path d="M380.216 306.583H376.404V311.145H380.216V306.583Z" stroke="#FFD000" stroke-miterlimit="10" stroke-linejoin="round"/>
<path d="M406.357 277.388H402.49V282.015H406.357V277.388Z" fill="#333333"/>
<path d="M406.302 277.192H402.49V281.754H406.302V277.192Z" stroke="#FFD000" stroke-miterlimit="10" stroke-linejoin="round"/>
<path d="M406.357 306.713H402.49V311.34H406.357V306.713Z" fill="#333333"/>
<path d="M406.302 306.583H402.49V311.145H406.302V306.583Z" stroke="#FFD000" stroke-miterlimit="10" stroke-linejoin="round"/>
<path d="M343.293 294.592L347.16 304.498L350.917 306.844L353.531 303.716L351.625 299.154L343.293 294.592Z" fill="#333333"/>
<path d="M343.293 294.592L347.16 304.498L350.917 306.844L353.531 303.716L351.625 299.154L343.293 294.592Z" stroke="#FFD000" stroke-miterlimit="10" stroke-linejoin="round"/>
<path d="M348.194 301.435C348.765 301.435 349.229 300.881 349.229 300.197C349.229 299.514 348.765 298.959 348.194 298.959C347.623 298.959 347.159 299.514 347.159 300.197C347.159 300.881 347.623 301.435 348.194 301.435Z" fill="#FFD000"/>
<path d="M343.293 294.592L347.595 299.741" stroke="#FFD000" stroke-miterlimit="10" stroke-linecap="round" stroke-linejoin="round"/>
<path d="M353.548 303.665L350.93 306.798L352.816 309.056L355.435 305.923L353.548 303.665Z" fill="#333333"/>
<path d="M353.548 303.665L350.93 306.798L352.816 309.056L355.435 305.923L353.548 303.665Z" stroke="#FFD000" stroke-miterlimit="10" stroke-linejoin="round"/>
</g>
<defs>
<filter id="filter0_d_387_438" x="0.5" y="0" width="518" height="518" filterUnits="userSpaceOnUse" color-interpolation-filters="sRGB">
<feFlood flood-opacity="0" result="BackgroundImageFix"/>
<feColorMatrix in="SourceAlpha" type="matrix" values="0 0 0 0 0 0 0 0 0 0 0 0 0 0 0 0 0 0 127 0" result="hardAlpha"/>
<feMorphology radius="1" operator="dilate" in="SourceAlpha" result="effect1_dropShadow_387_438"/>
<feOffset dx="1" dy="1"/>
<feGaussianBlur stdDeviation="4"/>
<feComposite in2="hardAlpha" operator="out"/>
<feColorMatrix type="matrix" values="0 0 0 0 0 0 0 0 0 0 0 0 0 0 0 0 0 0 0.1 0"/>
<feBlend mode="normal" in2="BackgroundImageFix" result="effect1_dropShadow_387_438"/>
<feBlend mode="normal" in="SourceGraphic" in2="effect1_dropShadow_387_438" result="shape"/>
</filter>
</defs>
</svg>
